<svg width="135" height="40" viewBox="0 0 135 40" fill="none" xmlns="http://www.w3.org/2000/svg">
    <g clip-path="url(#clip0_3137_1081)">
        <path d="M130 0H5C2.23858 0 0 2.23858 0 5V35C0 37.7614 2.23858 40 5 40H130C132.761 40 135 37.7614 135 35V5C135 2.23858 132.761 0 130 0Z" fill="black"/>
        <path d="M130 0.8C132.32 0.8 134.2 2.68 134.2 5V35C134.2 37.32 132.32 39.2 130 39.2H5C2.68 39.2 0.8 37.32 0.8 35V5C0.8 2.68 2.68 0.8 5 0.8H130ZM130 0H5C2.25 0 0 2.25 0 5V35C0 37.75 2.25 40 5 40H130C132.75 40 135 37.75 135 35V5C135 2.25 132.75 0 130 0Z" fill="#A6A6A6"/>
        <path d="M45.9816 12.75C45.6516 12.87 45.0116 13.06 44.2516 13.06C43.4016 13.06 42.6916 12.84 42.1416 12.31C41.6516 11.84 41.3516 11.09 41.3516 10.21C41.3516 8.53004 42.5116 7.29004 44.4116 7.29004C45.0616 7.29004 45.5716 7.43004 45.8216 7.55004L45.6416 8.14004C45.3416 8.01004 44.9616 7.90004 44.3916 7.90004C43.0216 7.90004 42.1216 8.75004 42.1216 10.17C42.1216 11.59 42.9816 12.45 44.3016 12.45C44.7816 12.45 45.1016 12.38 45.2716 12.3V10.62H44.1216V10.03H45.9816V12.74V12.75Z" fill="white" stroke="white" stroke-width="0.2" stroke-miterlimit="10"/>
        <path d="M50.1816 10.3496H47.9816V12.3896H50.4316V12.9996H47.2616V7.34961H50.3116V7.95961H47.9916V9.73961H50.1916V10.3396L50.1816 10.3496Z" fill="white" stroke="white" stroke-width="0.2" stroke-miterlimit="10"/>
        <path d="M52.763 7.96961H51.043V7.34961H55.223V7.96961H53.493V12.9996H52.753V7.96961H52.763Z" fill="white" stroke="white" stroke-width="0.2" stroke-miterlimit="10"/>
        <path d="M58.6909 7.34961V12.9996H57.9609V7.34961H58.6909Z" fill="white" stroke="white" stroke-width="0.2" stroke-miterlimit="10"/>
        <path d="M61.2005 7.96961H59.4805V7.34961H63.6605V7.96961H61.9305V12.9996H61.1905V7.96961H61.2005Z" fill="white" stroke="white" stroke-width="0.2" stroke-miterlimit="10"/>
        <path d="M71.2303 10.1198C71.2303 12.0598 70.0503 13.0898 68.6103 13.0898C67.1703 13.0898 66.0703 11.9298 66.0703 10.2298C66.0703 8.43976 67.1803 7.25977 68.6903 7.25977C70.2003 7.25977 71.2303 8.43977 71.2303 10.1198ZM66.8503 10.2098C66.8503 11.4198 67.5003 12.4998 68.6503 12.4998C69.8003 12.4998 70.4603 11.4398 70.4603 10.1498C70.4603 9.02977 69.8703 7.84977 68.6603 7.84977C67.4503 7.84977 66.8503 8.95977 66.8503 10.1998V10.2098Z" fill="white" stroke="white" stroke-width="0.2" stroke-miterlimit="10"/>
        <path d="M72.3516 12.9996V7.34961H73.1516L74.9616 10.2096C75.3816 10.8696 75.7116 11.4696 75.9716 12.0396H75.9916C75.9216 11.2796 75.9116 10.5896 75.9116 9.70961V7.34961H76.6016V12.9996H75.8616L74.0716 10.1296C73.6816 9.49961 73.3016 8.85961 73.0116 8.24961H72.9816C73.0216 8.96961 73.0416 9.64961 73.0416 10.5896V12.9996H72.3516Z" fill="white" stroke="white" stroke-width="0.2" stroke-miterlimit="10"/>
        <path d="M68.1408 21.75C65.7908 21.75 63.8708 23.54 63.8708 26C63.8708 28.46 65.7908 30.25 68.1408 30.25C70.4908 30.25 72.4108 28.45 72.4108 26C72.4108 23.55 70.4908 21.75 68.1408 21.75ZM68.1408 28.58C66.8508 28.58 65.7408 27.52 65.7408 26C65.7408 24.48 66.8508 23.42 68.1408 23.42C69.4308 23.42 70.5408 24.47 70.5408 26C70.5408 27.53 69.4308 28.58 68.1408 28.58ZM58.8308 21.75C56.4808 21.75 54.5608 23.54 54.5608 26C54.5608 28.46 56.4808 30.25 58.8308 30.25C61.1808 30.25 63.1008 28.45 63.1008 26C63.1008 23.55 61.1808 21.75 58.8308 21.75ZM58.8308 28.58C57.5408 28.58 56.4308 27.52 56.4308 26C56.4308 24.48 57.5408 23.42 58.8308 23.42C60.1208 23.42 61.2308 24.47 61.2308 26C61.2308 27.53 60.1208 28.58 58.8308 28.58ZM47.7508 23.05V24.85H52.0708C51.9408 25.86 51.6008 26.61 51.0908 27.12C50.4608 27.75 49.4808 28.44 47.7608 28.44C45.1008 28.44 43.0208 26.3 43.0208 23.64C43.0208 20.98 45.1008 18.84 47.7608 18.84C49.1908 18.84 50.2408 19.4 51.0108 20.13L52.2808 18.86C51.2008 17.83 49.7708 17.04 47.7508 17.04C44.1108 17.04 41.0508 20 41.0508 23.65C41.0508 27.3 44.1108 30.26 47.7508 30.26C49.7208 30.26 51.2008 29.62 52.3608 28.41C53.5508 27.22 53.9208 25.54 53.9208 24.19C53.9208 23.77 53.8908 23.38 53.8208 23.06H47.7508V23.05ZM93.0608 24.45C92.7108 23.5 91.6308 21.74 89.4208 21.74C87.2108 21.74 85.4108 23.46 85.4108 25.99C85.4108 28.37 87.2108 30.24 89.6308 30.24C91.5808 30.24 92.7108 29.05 93.1708 28.36L91.7208 27.39C91.2408 28.1 90.5808 28.57 89.6308 28.57C88.6808 28.57 88.0008 28.14 87.5708 27.28L93.2608 24.93L93.0708 24.45H93.0608ZM87.2608 25.87C87.2108 24.23 88.5308 23.39 89.4808 23.39C90.2208 23.39 90.8508 23.76 91.0608 24.29L87.2608 25.87ZM82.6408 29.99H84.5108V17.49H82.6408V29.99ZM79.5808 22.69H79.5208C79.1008 22.19 78.3008 21.74 77.2808 21.74C75.1508 21.74 73.2008 23.61 73.2008 26.01C73.2008 28.41 75.1508 30.25 77.2808 30.25C78.2908 30.25 79.1008 29.8 79.5208 29.28H79.5808V29.89C79.5808 31.52 78.7108 32.39 77.3108 32.39C76.1708 32.39 75.4608 31.57 75.1708 30.88L73.5408 31.56C74.0108 32.69 75.2508 34.07 77.3108 34.07C79.5008 34.07 81.3508 32.78 81.3508 29.64V22H79.5808V22.69ZM77.4408 28.57C76.1508 28.57 75.0708 27.49 75.0708 26.01C75.0708 24.53 76.1508 23.42 77.4408 23.42C78.7308 23.42 79.7108 24.52 79.7108 26.01C79.7108 27.5 78.7108 28.57 77.4408 28.57ZM101.821 17.49H97.3508V29.99H99.2208V25.25H101.831C103.901 25.25 105.931 23.75 105.931 21.37C105.931 18.99 103.901 17.49 101.831 17.49H101.821ZM101.871 23.52H99.2208V19.23H101.871C103.271 19.23 104.061 20.39 104.061 21.37C104.061 22.35 103.271 23.51 101.871 23.51V23.52ZM113.401 21.72C112.051 21.72 110.651 22.32 110.071 23.63L111.731 24.32C112.081 23.63 112.741 23.4 113.431 23.4C114.391 23.4 115.381 23.98 115.391 25.01V25.14C115.051 24.95 114.331 24.66 113.441 24.66C111.651 24.66 109.841 25.64 109.841 27.47C109.841 29.14 111.301 30.22 112.941 30.22C114.191 30.22 114.891 29.66 115.321 29H115.381V29.96H117.181V25.17C117.181 22.95 115.521 21.71 113.381 21.71L113.401 21.72ZM113.171 28.57C112.561 28.57 111.711 28.26 111.711 27.51C111.711 26.55 112.771 26.18 113.691 26.18C114.511 26.18 114.901 26.36 115.391 26.6C115.251 27.76 114.251 28.58 113.171 28.58V28.57ZM123.751 21.99L121.611 27.41H121.551L119.331 21.99H117.321L120.651 29.57L118.751 33.78H120.701L125.831 21.99H123.761H123.751ZM106.941 29.99H108.811V17.49H106.941V29.99Z" fill="white"/>
        <path d="M20.7203 19.4199L10.0703 30.7199C10.4003 31.9499 11.5203 32.8599 12.8503 32.8599C13.3803 32.8599 13.8803 32.7199 14.3103 32.4599L14.3403 32.4399L26.3203 25.5299L20.7103 19.4199H20.7203Z" fill="#EA4335"/>
        <path d="M31.4905 17.4993H31.4805L26.3105 14.4893L20.4805 19.6793L26.3305 25.5293L31.4805 22.5593C32.3805 22.0693 32.9905 21.1193 32.9905 20.0293C32.9905 18.9393 32.3905 17.9893 31.4905 17.5093V17.4993Z" fill="#FBBC04"/>
        <path d="M10.0687 9.2793C10.0087 9.5193 9.96875 9.7593 9.96875 10.0193V29.9793C9.96875 30.2393 9.99875 30.4793 10.0687 30.7193L21.0787 19.7093L10.0687 9.2793Z" fill="#4285F4"/>
        <path d="M20.8003 19.9996L26.3103 14.4896L14.3403 7.54965C13.9103 7.28965 13.4003 7.13965 12.8503 7.13965C11.5203 7.13965 10.4003 8.04965 10.0703 9.26965L20.8003 19.9996Z" fill="#34A853"/>
    </g>
    <defs>
        <clipPath id="clip0_3137_1081">
            <rect width="135" height="40" fill="white"/>
        </clipPath>
    </defs>
</svg>
